<svg width="222" height="61" viewBox="0 0 222 61" fill="none" xmlns="http://www.w3.org/2000/svg">
  <path d="M8.52715 60.1899H36.3139C38.6074 60.1899 40.7245 59.3078 42.3417 57.6906C43.9589 56.0734 44.8411 53.9269 44.8411 51.6628V13.8199C44.8411 11.5264 43.9589 9.40927 42.3417 7.79205C40.9597 6.41007 39.1955 5.55735 37.2842 5.35152C38.431 4.93987 39.2543 3.82252 39.2543 2.52874V1.23497C39.2543 0.617483 38.6368 0 38.0193 0H22.4352H6.82172C6.20424 0 5.58676 0.617483 5.58676 1.23497V2.52874C5.58676 3.82252 6.41007 4.93987 7.55682 5.35152C5.67497 5.55735 3.91073 6.41007 2.52874 7.79205C0.911523 9.37987 0 11.5264 0 13.8199V51.6334C0 53.9269 0.911523 56.0734 2.52874 57.6906C4.14596 59.3078 6.29245 60.1899 8.52715 60.1899ZM1.85245 13.8199C1.85245 12.0262 2.55815 10.3502 3.82252 9.08583C5.08689 7.82146 6.76291 7.14517 8.52715 7.14517H36.3139C38.1076 7.14517 39.7836 7.85086 41.048 9.11523C42.3123 10.3796 43.018 12.0556 43.018 13.8493V51.6628C43.018 53.4564 42.3123 55.1325 41.048 56.3968C39.7836 57.6612 38.1076 58.3669 36.3139 58.3669H8.52715C6.76291 58.3669 5.08689 57.6612 3.82252 56.4262C2.55815 55.1619 1.85245 53.4858 1.85245 51.6922V13.8199Z" fill="#3430FC"/>
  <path d="M14.7609 32.7854H12.9084V36.4609H14.7609V32.7854Z" fill="#3430FC"/>
  <path d="M14.7609 38.3135H12.9084V41.989H14.7609V38.3135Z" fill="#3430FC"/>
  <path d="M14.7609 27.2576H12.9084V30.9331H14.7609V27.2576Z" fill="#3430FC"/>
  <path d="M17.8483 27.2576H15.9958V30.9331H17.8483V27.2576Z" fill="#3430FC"/>
  <path d="M17.8483 32.7854H15.9958V36.4609H17.8483V32.7854Z" fill="#3430FC"/>
  <path d="M11.7028 27.2576H9.85034V30.9331H11.7028V27.2576Z" fill="#3430FC"/>
  <path d="M17.8483 43.8413H15.9958V47.5168H17.8483V43.8413Z" fill="#3430FC"/>
  <path d="M17.8483 38.3135H15.9958V41.989H17.8483V38.3135Z" fill="#3430FC"/>
  <path d="M11.7028 38.3135H9.85034V41.989H11.7028V38.3135Z" fill="#3430FC"/>
  <path d="M8.61539 32.7854H6.76294V36.4609H8.61539V32.7854Z" fill="#3430FC"/>
  <path d="M8.61539 27.2576H6.76294V30.9331H8.61539V27.2576Z" fill="#3430FC"/>
  <path d="M11.7028 32.7854H9.85034V36.4609H11.7028V32.7854Z" fill="#3430FC"/>
  <path d="M8.52719 56.485H36.2845C37.5783 56.485 38.7839 55.9851 39.6954 55.0736C40.6069 54.1621 41.1068 52.9565 41.1068 51.6627V13.8198C41.1068 12.526 40.6069 11.3205 39.6954 10.4089C38.7839 9.49743 37.5783 8.99756 36.2845 8.99756H8.52719C7.26282 8.99756 6.05726 9.49743 5.11633 10.4089C4.20481 11.3205 3.67554 12.526 3.67554 13.8198V51.6333C3.67554 52.9271 4.1754 54.1327 5.11633 55.0442C6.05726 55.9851 7.26282 56.485 8.52719 56.485ZM21.8178 32.7854L30.1097 30.3154L38.4016 32.7854V34.6378H21.8178V32.7854ZM37.7841 45.0762V46.9287H22.4353V45.0762H37.7841ZM23.0528 44.4587V35.2553H25.1992V44.4587H23.0528ZM27.0223 44.4587V35.2553H29.1688V44.4587H27.0223ZM31.0212 44.4587V35.2553H33.1677V44.4587H31.0212ZM35.0202 44.4587V35.2553H37.1667V44.4587H35.0202ZM20.9063 47.5462H39.3132V49.3986H20.9063V47.5462ZM5.52799 25.2874H7.05699V23.4349H17.4954V25.2874H19.0244V49.3692H14.7608V43.8413H12.9084V49.3692H11.6734V43.8413H9.82097V49.3692H5.52799V25.2874Z" fill="#3430FC"/>
  <path d="M8.61539 43.8413H6.76294V47.5168H8.61539V43.8413Z" fill="#3430FC"/>
  <path d="M8.61539 38.3135H6.76294V41.989H8.61539V38.3135Z" fill="#3430FC"/>
  <path d="M202.888 44.694H205.799L207.592 34.0498C207.71 33.2559 207.974 32.4913 208.327 31.7562C208.71 31.0211 209.151 30.3449 209.709 29.6686C210.239 29.0217 210.827 28.4924 211.503 28.0808C212.179 27.6691 213.002 27.4633 213.943 27.4633C214.973 27.4633 215.737 27.6985 216.296 28.1984C216.825 28.6982 217.09 29.3745 217.09 30.2566C217.09 30.8447 216.972 31.4034 216.707 31.9327C216.443 32.4913 216.002 32.9912 215.355 33.4911C214.708 33.9909 213.885 34.4614 212.855 34.9319C211.826 35.4023 210.503 35.814 208.945 36.1962L211.973 42.7827C212.385 43.6649 212.797 44.2823 213.238 44.6058C213.679 44.9586 214.208 45.1351 214.855 45.1351C215.59 45.1351 216.266 44.9292 216.913 44.4882C217.56 44.0471 218.383 43.3414 219.354 42.3711L222 39.7247L220.383 38.0193L215.414 42.5769L214.914 42.4887L212.267 36.6961C213.914 36.2845 215.237 35.814 216.266 35.2553C217.266 34.6966 218.06 34.0792 218.648 33.4617C219.236 32.8148 219.618 32.1679 219.824 31.521C220.03 30.8447 220.118 30.2272 220.118 29.6686C220.118 28.2278 219.648 27.0516 218.736 26.1989C217.825 25.3462 216.59 24.9051 215.031 24.9051C213.414 24.9051 212.062 25.3756 211.032 26.2871C210.003 27.1986 209.121 28.4336 208.415 29.9332H208.268L210.444 16.9366H207.533L202.888 44.694ZM198.212 16.966L195.654 15.4958L191.596 21.7295L193.361 22.788L198.212 16.966ZM194.243 27.5809C194.743 27.7279 195.125 27.9337 195.419 28.1984C195.713 28.463 195.948 28.757 196.066 29.1099C196.213 29.4627 196.272 29.845 196.272 30.2272C196.272 30.6977 196.154 31.1682 195.889 31.6386C195.654 32.1091 195.125 32.5502 194.36 32.9324C193.596 33.3441 192.508 33.6675 191.067 33.9615C189.626 34.2556 187.744 34.432 185.392 34.4908L185.422 34.1086C185.686 31.9327 186.451 30.2566 187.656 29.0805C188.891 27.9043 190.479 27.3162 192.42 27.3162C193.155 27.3457 193.772 27.4339 194.243 27.5809ZM194.89 43.7531C196.272 42.8121 197.507 41.4302 198.624 39.6365L196.566 38.3427C196.007 39.1072 195.507 39.7835 195.007 40.3128C194.507 40.8421 194.008 41.2831 193.508 41.636C193.008 41.9594 192.449 42.2241 191.89 42.3711C191.332 42.5475 190.685 42.6063 190.009 42.6063C188.979 42.6063 188.156 42.4593 187.539 42.1653C186.921 41.8712 186.421 41.489 186.068 40.9891C185.716 40.4892 185.48 39.96 185.363 39.3131C185.245 38.6956 185.186 38.0487 185.186 37.3724V37.049C185.186 36.8725 185.186 36.6961 185.216 36.5197C188.303 36.4315 190.744 36.1962 192.626 35.7846C194.478 35.3729 195.919 34.8437 196.889 34.2262C197.889 33.6087 198.536 32.9324 198.83 32.1973C199.153 31.4622 199.3 30.7859 199.3 30.1096C199.3 29.2569 199.124 28.5218 198.8 27.8749C198.477 27.228 198.006 26.6988 197.448 26.2577C196.86 25.8166 196.154 25.4932 195.36 25.258C194.566 25.0227 193.684 24.9345 192.743 24.9345C191.185 24.9345 189.773 25.2286 188.45 25.8166C187.127 26.4047 186.01 27.228 185.069 28.2866C184.128 29.3451 183.393 30.6095 182.863 32.0797C182.334 33.5499 182.07 35.1377 182.07 36.9019C182.07 39.6953 182.746 41.783 184.069 43.1356C185.392 44.4882 187.274 45.1645 189.715 45.1645C191.773 45.1645 193.508 44.694 194.89 43.7531ZM168.044 44.988C168.455 44.8704 168.897 44.694 169.426 44.4588C169.926 44.2235 170.514 43.8707 171.161 43.459C171.808 43.0474 172.543 42.5181 173.425 41.9006L177.659 38.9014L176.189 36.9902L167.75 42.6063L167.015 42.1653L169.426 27.9337H177.394L177.806 25.3756H169.837L171.014 18.5539H168.25L167.397 23.6113C167.279 24.2582 167.044 24.7287 166.75 24.9933C166.427 25.258 165.956 25.3756 165.309 25.3756H161.369L160.957 27.9337H166.544L164.309 40.9597C164.251 41.1655 164.221 41.4008 164.221 41.6948C164.221 41.9888 164.192 42.2241 164.192 42.4005C164.192 43.312 164.427 43.9883 164.927 44.4588C165.427 44.9292 166.103 45.1645 166.956 45.1645C167.279 45.1645 167.662 45.1057 168.044 44.988ZM146.785 44.988C147.196 44.8704 147.637 44.694 148.167 44.4588C148.667 44.2235 149.255 43.8707 149.902 43.459C150.548 43.0474 151.284 42.5181 152.166 41.9006L156.4 38.9014L154.93 36.9902L146.491 42.6063L145.756 42.1653L148.167 27.9337H156.135L156.547 25.3756H148.578L149.755 18.5539H146.991L146.138 23.6113C146.02 24.2582 145.785 24.7287 145.491 24.9933C145.168 25.258 144.697 25.3756 144.05 25.3756H140.11L139.698 27.9337H145.285L143.05 40.9597C142.992 41.1655 142.962 41.4008 142.962 41.6948C142.962 41.9888 142.933 42.2241 142.933 42.4005C142.933 43.312 143.168 43.9883 143.668 44.4588C144.168 44.9292 144.844 45.1645 145.697 45.1645C145.991 45.1645 146.373 45.1057 146.785 44.988ZM130.23 27.5809C130.73 27.7279 131.112 27.9337 131.406 28.1984C131.7 28.463 131.936 28.757 132.053 29.1099C132.2 29.4627 132.259 29.845 132.259 30.2272C132.259 30.6977 132.142 31.1682 131.877 31.6386C131.642 32.1091 131.112 32.5502 130.348 32.9324C129.583 33.3441 128.495 33.6675 127.055 33.9615C125.614 34.2556 123.732 34.432 121.38 34.4908L121.409 34.1086C121.674 31.9327 122.438 30.2566 123.644 29.0805C124.879 27.9043 126.467 27.3162 128.407 27.3162C129.142 27.3457 129.73 27.4339 130.23 27.5809ZM130.848 43.7531C132.23 42.8121 133.465 41.4302 134.582 39.6365L132.524 38.3427C131.965 39.1072 131.465 39.7835 130.965 40.3128C130.466 40.8421 129.966 41.2831 129.466 41.636C128.966 41.9594 128.407 42.2241 127.849 42.3711C127.29 42.5475 126.643 42.6063 125.967 42.6063C124.938 42.6063 124.114 42.4593 123.497 42.1653C122.879 41.8712 122.379 41.489 122.027 40.9891C121.674 40.4892 121.439 39.96 121.321 39.3131C121.203 38.6956 121.144 38.0487 121.144 37.3724V37.049C121.144 36.8725 121.144 36.6961 121.174 36.5197C124.261 36.4315 126.702 36.1962 128.584 35.7846C130.436 35.3729 131.877 34.8437 132.847 34.2262C133.847 33.6087 134.494 32.9324 134.788 32.1973C135.111 31.4622 135.258 30.7859 135.258 30.1096C135.258 29.2569 135.082 28.5218 134.758 27.8749C134.435 27.228 133.965 26.6988 133.406 26.2577C132.818 25.8166 132.112 25.4932 131.318 25.258C130.524 25.0227 129.642 24.9345 128.701 24.9345C127.143 24.9345 125.731 25.2286 124.408 25.8166C123.085 26.4047 121.968 27.228 121.027 28.2866C120.086 29.3451 119.351 30.6095 118.822 32.0797C118.292 33.5499 118.028 35.1377 118.028 36.9019C118.028 39.6953 118.704 41.783 120.027 43.1356C121.35 44.4882 123.232 45.1645 125.673 45.1645C127.76 45.1645 129.466 44.694 130.848 43.7531ZM104.031 44.988C104.443 44.8704 104.884 44.694 105.384 44.4588C105.884 44.2235 106.472 43.8707 107.119 43.459C107.766 43.0474 108.501 42.5181 109.383 41.9006L113.617 38.9014L112.147 36.9902L103.708 42.6063L102.973 42.1653L105.384 27.9337H113.352L113.764 25.3756H105.796L106.972 18.5539H104.208L103.355 23.6113C103.237 24.2582 103.002 24.7287 102.708 24.9933C102.385 25.258 101.914 25.3756 101.267 25.3756H97.3272L96.9156 27.9337H102.502L100.268 40.9597C100.209 41.1655 100.179 41.4008 100.179 41.6948C100.179 41.9888 100.15 42.2241 100.15 42.4005C100.15 43.312 100.385 43.9883 100.885 44.4588C101.385 44.9292 102.061 45.1645 102.914 45.1645C103.237 45.1645 103.62 45.1057 104.031 44.988ZM85.007 45.0174C85.3892 44.9292 85.8303 44.7234 86.3302 44.4294C86.83 44.1353 87.3887 43.7531 88.0356 43.2238C88.6825 42.7239 89.447 42.0476 90.3585 41.2243L94.2692 37.6959L92.5932 36.0786L84.9188 42.6063L83.9778 42.3123L88.8589 16.966H79.0086L78.5969 19.5242H85.4186L81.2139 41.3125C81.1551 41.489 81.1257 41.6948 81.1257 41.9006C81.1257 42.1359 81.0962 42.3123 81.0962 42.4887C81.0962 43.2532 81.3021 43.9001 81.7431 44.4C82.1548 44.8998 82.8899 45.1351 83.919 45.1351C84.2425 45.1645 84.6247 45.1057 85.007 45.0174ZM70.1874 27.5809C70.6872 27.7279 71.0695 27.9337 71.3635 28.1984C71.6576 28.463 71.8928 28.757 72.0104 29.1099C72.1574 29.4627 72.2163 29.845 72.2163 30.2272C72.2163 30.6977 72.0986 31.1682 71.834 31.6386C71.5694 32.1091 71.0695 32.5502 70.305 32.9324C69.5405 33.3441 68.4525 33.6675 67.0117 33.9615C65.5709 34.2556 63.6891 34.432 61.3368 34.4908L61.3662 34.1086C61.6308 31.9327 62.3953 30.2566 63.6009 29.0805C64.8359 27.9043 66.4237 27.3162 68.3643 27.3162C69.0994 27.3457 69.6875 27.4339 70.1874 27.5809ZM70.8049 43.7531C72.1868 42.8121 73.4218 41.4302 74.5392 39.6365L72.4809 38.3427C71.9222 39.1072 71.4223 39.7835 70.9225 40.3128C70.4226 40.8421 69.9227 41.2831 69.4229 41.636C68.923 41.9888 68.3643 42.2241 67.8057 42.3711C67.247 42.5475 66.6001 42.6063 65.9238 42.6063C64.8947 42.6063 64.0713 42.4593 63.4539 42.1653C62.8364 41.8712 62.3365 41.489 61.9837 40.9891C61.6308 40.4892 61.3956 39.96 61.278 39.3131C61.1604 38.6956 61.1015 38.0487 61.1015 37.3724V37.049C61.1015 36.8725 61.1015 36.6961 61.1309 36.5197C64.2184 36.4315 66.6589 36.1962 68.5408 35.7846C70.4226 35.3729 71.834 34.8437 72.8043 34.2262C73.8041 33.6087 74.451 32.9324 74.745 32.1973C75.0684 31.4622 75.2155 30.7859 75.2155 30.1096C75.2155 29.2569 75.039 28.5218 74.7156 27.8749C74.3921 27.228 73.9217 26.6988 73.3336 26.2577C72.7455 25.8166 72.0398 25.4932 71.2459 25.258C70.452 25.0227 69.5699 24.9345 68.629 24.9345C67.0706 24.9345 65.6592 25.2286 64.336 25.8166C63.0128 26.4047 61.8955 27.228 60.9545 28.2866C60.0136 29.3451 59.2785 30.6095 58.7492 32.0797C58.22 33.5499 57.9553 35.1377 57.9553 36.9019C57.9553 39.6953 58.6316 41.783 59.9548 43.1356C61.278 44.4882 63.1598 45.1645 65.6004 45.1645C67.7174 45.1645 69.4229 44.694 70.8049 43.7531Z" fill="#3430FC"/>
</svg>
