<?xml version="1.0" encoding="UTF-8"?>
<svg width="700pt" height="700pt" version="1.1" viewBox="0 0 700 700" xmlns="http://www.w3.org/2000/svg">
 <path d="m262.5 280c0.054688 24.988 10.785 48.758 29.492 65.324 18.707 16.562 43.605 24.34 68.414 21.367 24.809-2.9688 47.164-16.406 61.43-36.922 3.5391-5.1562 9.5586-8.0312 15.793-7.543 6.2344 0.48828 11.734 4.2617 14.43 9.9062 2.6953 5.6406 2.1758 12.293-1.3633 17.445-19.914 28.859-51.242 47.801-86.051 52.027-34.805 4.2305-69.754-6.6602-96-29.91-26.246-23.25-41.27-56.633-41.27-91.695s15.023-68.445 41.27-91.695c26.246-23.25 61.195-34.141 96-29.91 34.809 4.2266 66.137 23.168 86.051 52.027 3.5391 5.1523 4.0586 11.805 1.3633 17.445-2.6953 5.6445-8.1953 9.418-14.43 9.9062-6.2344 0.48828-12.254-2.3867-15.793-7.543-14.266-20.516-36.621-33.953-61.43-36.922-24.809-2.9727-49.707 4.8047-68.414 21.367-18.707 16.566-29.438 40.336-29.492 65.324zm270.41 63c-4.2305-1.9102-9.0469-2.0625-13.391-0.42188-4.3398 1.6406-7.8516 4.9414-9.7617 9.1719-16.418 36.52-44.859 66.305-80.586 84.387-35.723 18.086-76.57 23.367-115.72 14.973-39.152-8.3945-74.238-29.961-99.41-61.102-25.168-31.137-38.902-69.969-38.902-110.01s13.734-78.871 38.902-110.01c25.172-31.141 60.258-52.707 99.41-61.102 39.148-8.3945 79.996-3.1133 115.72 14.973 35.727 18.082 64.168 47.867 80.586 84.387 2.6797 5.5234 8.0547 9.2383 14.168 9.793 6.1133 0.55078 12.07-2.1367 15.695-7.0898 3.6289-4.9531 4.3945-11.445 2.0195-17.105-19.703-43.82-53.836-79.559-96.707-101.25s-91.883-28.031-138.86-17.953c-46.977 10.074-89.078 35.957-119.28 73.324s-46.676 83.961-46.676 132c0 48.047 16.473 94.641 46.676 132.01 30.203 37.367 72.305 63.246 119.28 73.324 46.977 10.074 95.988 3.7383 138.86-17.953 42.871-21.695 77.004-57.434 96.707-101.25 1.8984-4.2227 2.043-9.0234 0.40625-13.355-1.6367-4.3281-4.9219-7.832-9.1367-9.7461zm39.461-110.36c-3.2812-3.2812-7.7305-5.125-12.371-5.125s-9.0898 1.8438-12.371 5.125l-29.875 29.855h-143.01l5.1289-5.1289h-0.003906c4.293-4.4453 5.9258-10.824 4.293-16.785-1.6367-5.957-6.293-10.613-12.25-12.25-5.9609-1.6328-12.34 0-16.785 4.293l-35 35c-3.2812 3.2812-5.125 7.7305-5.125 12.371s1.8438 9.0898 5.125 12.371l35 35c4.4453 4.293 10.824 5.9258 16.785 4.293 5.957-1.6367 10.613-6.293 12.25-12.25 1.6328-5.9609 0-12.34-4.293-16.785l-5.125-5.1289h143.01l29.871 29.871c4.4453 4.293 10.824 5.9258 16.785 4.293 5.957-1.6367 10.613-6.293 12.25-12.25 1.6328-5.9609 0-12.34-4.293-16.785l-22.625-22.629 22.629-22.629h-0.003906c3.2812-3.2812 5.125-7.7305 5.125-12.371s-1.8438-9.0898-5.125-12.371z"/>
</svg>
