<?xml version="1.0" encoding="UTF-8"?>
<svg width="700pt" height="700pt" version="1.1" viewBox="0 0 700 700" xmlns="http://www.w3.org/2000/svg">
 <g>
  <path d="m349.98 117.89c-41.926 0-76.066 34.207-76.066 76.152 0 41.945 34.141 76.152 76.066 76.152s76.109-34.207 76.109-76.152c0-41.945-34.184-76.152-76.109-76.152zm0 17.668c32.359 0 58.441 26.09 58.441 58.484 0 32.395-26.082 58.441-58.441 58.441s-58.398-26.047-58.398-58.441c0-32.395 26.035-58.484 58.398-58.484z"/>
  <path d="m349.98 292.86c-72.824 0-132.03 59.246-132.03 132.11 0 2.9609 0.11328 5.9219 0.30469 8.8789v-0.003907c0.33203 4.8672 4.5352 8.543 9.3984 8.2266 4.8633-0.33203 8.543-4.5352 8.2266-9.3984-0.17969-2.5586-0.26172-5.1367-0.26172-7.7031 0-63.316 51.098-114.45 114.36-114.45 63.258 0 114.36 51.129 114.36 114.45 0 2.5664-0.042969 5.1445-0.22266 7.7031-0.32031 4.8633 3.3594 9.0664 8.2227 9.3984 4.8633 0.31641 9.0703-3.3594 9.3984-8.2266 0.19922-2.9531 0.30469-5.9141 0.30469-8.8789 0-72.867-59.246-132.11-132.07-132.11z"/>
  <path d="m226.92 424.45c-4.8789 0.003906-8.8281 3.957-8.8359 8.8359 0.007812 4.875 3.957 8.8281 8.8359 8.832h246.17-0.003906c4.8789-0.003906 8.832-3.957 8.8359-8.832-0.003906-4.8789-3.957-8.832-8.8359-8.8359z"/>
 </g>
</svg>
