<?xml version="1.0" encoding="UTF-8"?>
<svg width="700pt" height="700pt" version="1.1" viewBox="0 0 700 700" xmlns="http://www.w3.org/2000/svg">
 <path d="m350 122.5c-23.207 0-45.461 9.2188-61.871 25.629s-25.629 38.664-25.629 61.871 9.2188 45.461 25.629 61.871 38.664 25.629 61.871 25.629 45.461-9.2188 61.871-25.629 25.629-38.664 25.629-61.871-9.2188-45.461-25.629-61.871-38.664-25.629-61.871-25.629zm0 140c-13.926 0-27.277-5.5312-37.125-15.375-9.8438-9.8477-15.375-23.199-15.375-37.125s5.5312-27.277 15.375-37.125c9.8477-9.8438 23.199-15.375 37.125-15.375s27.277 5.5312 37.125 15.375c9.8438 9.8477 15.375 23.199 15.375 37.125s-5.5312 27.277-15.375 37.125c-9.8477 9.8438-23.199 15.375-37.125 15.375zm0-210c-41.773 0-81.832 16.594-111.37 46.129-29.535 29.539-46.129 69.598-46.129 111.37 0.015625 13.277 1.6602 26.5 4.8984 39.375 1.5859 5.9609 3.5742 11.809 5.9531 17.5 0.34375 0.84766 0.75 1.668 1.2227 2.4492l26.426 43.051 1.0508 1.3984 102.9 167.48c3.1914 5.1484 8.8203 8.2812 14.875 8.2812 6.0586 0 11.684-3.1328 14.875-8.2812l103.07-166.25 1.0508-1.5742 26.426-43.051c0.47266-0.78516 0.88281-1.6016 1.2266-2.4492 2.4336-5.6875 4.4805-11.535 6.125-17.5 3.3242-13.215 4.9727-26.797 4.8984-40.426 0-41.773-16.594-81.832-46.129-111.37-29.539-29.535-69.598-46.129-111.37-46.129zm118.65 188.12c-1.0781 4.1094-2.4219 8.1406-4.0234 12.074l-24.852 40.602-1.0508 1.5742-88.723 144.2-88.727-144.2-1.0508-1.3984-24.848-40.777c-1.5938-3.875-2.9414-7.8516-4.0234-11.898-2.543-10.07-3.8359-20.414-3.8516-30.801 0-43.766 23.348-84.207 61.25-106.09 37.902-21.879 84.598-21.879 122.5 0 37.902 21.883 61.25 62.324 61.25 106.09-0.03125 10.328-1.3242 20.613-3.8516 30.625z"/>
</svg>
